# xmcd
#
# Track frame offsets:
#	150
#	13571
#	27965
#	40627
#	55247
#	68244
#	81507
#	95049
#	109839
#	123924
#	138784
#	151885
#	164790
#	178494
#	191917
#	207047
#	221215
#	234460
#	247032
#	260890
#	274455
#	288668
#	300985
#	313874
#
# Disc length: 4362 seconds
#
# Revision: 0
# Processed by: cddbd v1.5.2PL0 Copyright (c) Steve Scherf et al.
# Submitted via: audiograbber 1.83.01
#
DISCID=74110818
DTITLE=Bessie Smith - Empress of the Blues Volume 2 CD A
DYEAR=1928
DGENRE=Blues
TTITLE0=One and Two Blues
TTITLE1=Young Woman's Blues
TTITLE2=Preachin' the Blues
TTITLE3=Back Water Blues
TTITLE4=After You're Gone
TTITLE5=Alexander's Ragtime Band
TTITLE6=Muddy Waters
TTITLE7=There'll be a hot time in the old town tonight
TTITLE8=Trombone Cholly
TTITLE9=Send Me to the 'Lectric Chair
TTITLE10=Them Graveyard Words
TTITLE11=Hot Spring Blues
TTITLE12=Sweet Mistreater
TTITLE13=Lock and Key
TTITLE14=Mean Old Bedbug Blues
TTITLE15=A Good Man is Hard to Find
TTITLE16=Homeless Blues
TTITLE17=Looking For My Man Blues
TTITLE18=Dyin' by the Hour
TTITLE19=Foolish Man Blues
TTITLE20=Thinking Blues
TTITLE21=Pickpocket Blues
TTITLE22=I Used to be Your Sweet Mama
TTITLE23=I'd Rather be Dead and Buried
EXTD=
EXTT0=
EXTT1=
EXTT2=
EXTT3=
EXTT4=
EXTT5=
EXTT6=
EXTT7=
EXTT8=
EXTT9=
EXTT10=
EXTT11=
EXTT12=
EXTT13=
EXTT14=
EXTT15=
EXTT16=
EXTT17=
EXTT18=
EXTT19=
EXTT20=
EXTT21=
EXTT22=
EXTT23=
PLAYORDER=
